<?xml version="1.0" encoding="UTF-8" standalone="no"?>
<!-- Created with Inkscape (http://www.inkscape.org/) -->

<svg
   width="1024"
   height="500"
   viewBox="0 0 270.93333 132.29167"
   version="1.1"
   id="svg1"
   xml:space="preserve"
   inkscape:version="1.4.3 (0d15f75042, 2025-12-25)"
   sodipodi:docname="feature-graphic.svg"
   xmlns:inkscape="http://www.inkscape.org/namespaces/inkscape"
   xmlns:sodipodi="http://sodipodi.sourceforge.net/DTD/sodipodi-0.dtd"
   xmlns:xlink="http://www.w3.org/1999/xlink"
   xmlns="http://www.w3.org/2000/svg"
   xmlns:svg="http://www.w3.org/2000/svg"><sodipodi:namedview
     id="namedview1"
     pagecolor="#ffffff"
     bordercolor="#000000"
     borderopacity="0.25"
     inkscape:showpageshadow="2"
     inkscape:pageopacity="0.0"
     inkscape:pagecheckerboard="0"
     inkscape:deskcolor="#d1d1d1"
     inkscape:document-units="mm"
     showguides="true"
     inkscape:zoom="1.8247237"
     inkscape:cx="484.1829"
     inkscape:cy="267.43775"
     inkscape:window-width="2544"
     inkscape:window-height="1541"
     inkscape:window-x="0"
     inkscape:window-y="0"
     inkscape:window-maximized="1"
     inkscape:current-layer="layer1" /><defs
     id="defs1"><inkscape:path-effect
       effect="fillet_chamfer"
       id="path-effect72"
       is_visible="true"
       lpeversion="1"
       nodesatellites_param="F,0,0,1,0,0,0,1 @ F,0,0,1,0,0.52916666,0,1 @ F,0,0,1,0,0.52916666,0,1"
       radius="2"
       unit="px"
       method="auto"
       mode="F"
       chamfer_steps="1"
       flexible="false"
       use_knot_distance="true"
       apply_no_radius="true"
       apply_with_radius="true"
       only_selected="false"
       hide_knots="false" /><inkscape:path-effect
       effect="fillet_chamfer"
       id="path-effect71"
       is_visible="true"
       lpeversion="1"
       nodesatellites_param="F,0,0,1,0,0.26458333,0,1 @ F,0,0,1,0,0.26458333,0,1 @ F,0,0,1,0,0.26458333,0,1 @ F,0,0,1,0,0.26458333,0,1 @ F,0,0,1,0,0.26458333,0,1 @ F,0,0,1,0,0.26458333,0,1"
       radius="1"
       unit="px"
       method="auto"
       mode="F"
       chamfer_steps="1"
       flexible="false"
       use_knot_distance="true"
       apply_no_radius="true"
       apply_with_radius="true"
       only_selected="false"
       hide_knots="false" /><inkscape:path-effect
       effect="fillet_chamfer"
       id="path-effect70"
       is_visible="true"
       lpeversion="1"
       nodesatellites_param="F,0,0,1,0,0.26458333,0,1 @ F,0,0,1,0,0.26458333,0,1 @ F,0,0,1,0,0.26458333,0,1 @ F,0,0,1,0,0.26458333,0,1 @ F,0,0,1,0,0.26458333,0,1 @ F,0,0,1,0,0.26458333,0,1 @ F,0,0,1,0,0.26458333,0,1 @ F,0,0,1,0,0.26458333,0,1 @ F,0,0,1,0,0.26458333,0,1"
       radius="1"
       unit="px"
       method="auto"
       mode="F"
       chamfer_steps="1"
       flexible="false"
       use_knot_distance="true"
       apply_no_radius="true"
       apply_with_radius="true"
       only_selected="false"
       hide_knots="false" /><marker
       style="overflow:visible"
       id="Triangle"
       refX="0"
       refY="0"
       orient="auto-start-reverse"
       inkscape:stockid="Triangle arrow"
       markerWidth="0.3"
       markerHeight="0.4"
       viewBox="0 0 1 1"
       inkscape:isstock="true"
       inkscape:collect="always"
       preserveAspectRatio="none"><path
         transform="scale(0.5)"
         style="fill:context-stroke;fill-rule:evenodd;stroke:context-stroke;stroke-width:1pt"
         d="M 5.77,0 -2.88,5 V -5 Z"
         id="path135" /></marker><linearGradient
       id="linearGradient54"
       inkscape:collect="always"><stop
         style="stop-color:#c3a5ef;stop-opacity:1;"
         offset="0"
         id="stop54" /><stop
         style="stop-color:#8c60d3;stop-opacity:1;"
         offset="1"
         id="stop55" /></linearGradient><inkscape:path-effect
       effect="fillet_chamfer"
       id="path-effect23"
       is_visible="true"
       lpeversion="1"
       nodesatellites_param="F,0,0,1,0,2.6458333,0,1 @ F,0,0,1,0,2.6458333,0,1 @ F,0,0,1,0,2.6458333,0,1 @ F,0,0,1,0,2.6458333,0,1"
       radius="10"
       unit="px"
       method="auto"
       mode="F"
       chamfer_steps="1"
       flexible="false"
       use_knot_distance="true"
       apply_no_radius="true"
       apply_with_radius="true"
       only_selected="false"
       hide_knots="false" /><inkscape:path-effect
       effect="fillet_chamfer"
       id="path-effect22"
       is_visible="true"
       lpeversion="1"
       nodesatellites_param="F,0,0,1,0,2.6458333,0,1 @ F,0,0,1,0,2.6458333,0,1 @ F,0,0,1,0,2.6458333,0,1 @ F,0,0,1,0,2.6458333,0,1"
       radius="10"
       unit="px"
       method="auto"
       mode="F"
       chamfer_steps="1"
       flexible="false"
       use_knot_distance="true"
       apply_no_radius="true"
       apply_with_radius="true"
       only_selected="false"
       hide_knots="false" /><inkscape:path-effect
       effect="fillet_chamfer"
       id="path-effect26"
       is_visible="true"
       lpeversion="1"
       nodesatellites_param="F,0,0,1,0,2.6458333,0,1 @ F,0,0,1,0,2.6458333,0,1 @ F,0,0,1,0,2.6458333,0,1 @ F,0,0,1,0,2.6458333,0,1"
       radius="10"
       unit="px"
       method="auto"
       mode="F"
       chamfer_steps="1"
       flexible="false"
       use_knot_distance="true"
       apply_no_radius="true"
       apply_with_radius="true"
       only_selected="false"
       hide_knots="false" /><inkscape:path-effect
       effect="fillet_chamfer"
       id="path-effect28"
       is_visible="true"
       lpeversion="1"
       nodesatellites_param="F,0,0,1,0,2.6458333,0,1 @ F,0,0,1,0,2.6458333,0,1 @ F,0,0,1,0,2.6458333,0,1 @ F,0,0,1,0,2.6458333,0,1"
       radius="10"
       unit="px"
       method="auto"
       mode="F"
       chamfer_steps="1"
       flexible="false"
       use_knot_distance="true"
       apply_no_radius="true"
       apply_with_radius="true"
       only_selected="false"
       hide_knots="false" /><filter
       inkscape:collect="always"
       style="color-interpolation-filters:sRGB"
       id="filter3"
       x="-0.024381346"
       y="-0.10944026"
       width="1.0487627"
       height="1.2188805"><feGaussianBlur
         inkscape:collect="always"
         stdDeviation="0.84554822"
         id="feGaussianBlur3" /></filter><linearGradient
       inkscape:collect="always"
       xlink:href="#linearGradient54"
       id="linearGradient55"
       x1="0"
       y1="132.29167"
       x2="270.93332"
       y2="-1.7529296e-06"
       gradientUnits="userSpaceOnUse"
       gradientTransform="translate(0,-132.29167)" /></defs><g
     inkscape:label="Layer 1"
     inkscape:groupmode="layer"
     id="layer1"><rect
       style="opacity:1;fill:url(#linearGradient55);stroke:none;stroke-width:0.3;stroke-linecap:round;stroke-linejoin:round;stroke-miterlimit:10;stroke-dasharray:none;stroke-dashoffset:0;stroke-opacity:1"
       id="rect54"
       width="270.93332"
       height="132.29167"
       x="0"
       y="-132.29167"
       ry="0"
       transform="scale(1,-1)" /><g
       id="g1"
       transform="matrix(0.47324282,0,0,0.47324282,120.94833,6.7992368)"><path
         id="path30"
         style="baseline-shift:baseline;display:inline;overflow:visible;opacity:1;fill:none;stroke:#000000;stroke-width:3.043;stroke-linecap:round;stroke-linejoin:round;stroke-miterlimit:10;stroke-dasharray:none;enable-background:accumulate;stop-color:#000000;stop-opacity:1"
         d="m 32.520156,15.128618 c -0.347353,-1.09e-4 -0.676022,0.156695 -0.894485,0.426731 l -3.491137,4.317427 c -0.931327,0.03146 -1.840618,0.291561 -2.647628,0.757486 l -5.463604,3.154443 c -0.815365,0.470767 -1.317648,1.340752 -1.317648,2.282262 v 24.23963 c 1e-6,0.840303 0.681202,1.521509 1.521505,1.521509 h 27.717114 c 0.840303,0 1.521496,-0.681194 1.521496,-1.521509 V 21.391004 c 0,-0.840303 0.02268,-2.212604 -0.156158,-3.032017 -0.304865,-1.396727 -1.04068,-2.459493 -2.069043,-2.970943 -0.30634,-0.152365 -0.730108,-0.236401 -1.174558,-0.25645 -0.02781,-0.0024 -0.05585,-0.0024 -0.08415,-0.0024 h -0.25467 z m 0.548718,2.300238 h 11.079702 c -1.338789,1.210253 -2.810688,2.104738 -5.235986,2.361152 -0.835254,0.08829 -5.466998,0.07951 -6.3073,0.07951 h -1.50991 z"
         sodipodi:nodetypes="cccccscsccssscsccccsscc" /><path
         style="baseline-shift:baseline;display:inline;overflow:visible;opacity:1;fill:#000000;fill-opacity:1;stroke:#000000;stroke-width:3.043;stroke-linecap:round;stroke-linejoin:round;stroke-miterlimit:10;stroke-dasharray:none;stroke-opacity:1;enable-background:accumulate;stop-color:#000000;stop-opacity:1"
         d="m 15.198251,14.035206 -2.254179,0.174097 a 1.1501131,1.1501131 0 0 0 -1.058015,1.235473 1.1501131,1.1501131 0 0 0 1.234913,1.058009 l 2.254741,-0.174084 c 1.234162,-0.09549 2.417686,0.484718 3.097672,1.519068 l 3.328481,5.063756 a 1.1501131,1.1501131 0 0 0 1.592638,0.329096 1.1501131,1.1501131 0 0 0 0.329647,-1.592642 l -3.329043,-5.063767 c -1.13789,-1.730886 -3.1316,-2.708725 -5.196855,-2.549006 z"
         id="path28" /><path
         style="fill:#4c14bb;fill-opacity:1;stroke:#000000;stroke-width:10.5833;stroke-linecap:round;stroke-linejoin:round;stroke-miterlimit:10;stroke-dasharray:none"
         id="rect19"
         width="20.745766"
         height="11.389512"
         x="131.46736"
         y="-10.193883"
         transform="matrix(0.14376432,0.2490071,-0.2490071,0.14376432,0.59117615,-13.081953)"
         inkscape:path-effect="#path-effect23"
         sodipodi:type="rect"
         d="m 134.11319,-10.193883 h 15.4541 a 2.6458333,2.6458333 45 0 1 2.64584,2.6458334 v 6.0978454 a 2.6458333,2.6458333 135 0 1 -2.64584,2.6458333 h -15.4541 a 2.6458333,2.6458333 45 0 1 -2.64583,-2.6458333 v -6.0978454 a 2.6458333,2.6458333 135 0 1 2.64583,-2.6458334 z" /><path
         style="baseline-shift:baseline;display:inline;overflow:visible;opacity:1;vector-effect:none;fill:#c9b6d6;fill-opacity:1;stroke-width:0.287529;stroke-linecap:round;stroke-linejoin:round;stroke-miterlimit:10;enable-background:accumulate;stop-color:#000000;stop-opacity:1"
         d="m 15.198251,14.035206 -2.254179,0.174097 a 1.1501131,1.1501131 0 0 0 -1.058015,1.235473 1.1501131,1.1501131 0 0 0 1.234913,1.058009 l 2.254741,-0.174084 c 1.234162,-0.09549 2.417686,0.484718 3.097672,1.519068 l 3.328481,5.063756 a 1.1501131,1.1501131 0 0 0 1.592638,0.329096 1.1501131,1.1501131 0 0 0 0.329647,-1.592642 l -3.329043,-5.063767 c -1.13789,-1.730886 -3.1316,-2.708725 -5.196855,-2.549006 z"
         id="path18" /><path
         style="fill:#732dec;fill-opacity:1;stroke:#000000;stroke-width:10.5833;stroke-linecap:round;stroke-linejoin:round;stroke-miterlimit:10;stroke-dasharray:none"
         id="rect18"
         width="20.745766"
         height="8.58354"
         x="-5.2991438"
         y="141.05814"
         transform="matrix(0.2490071,-0.14376432,0.14376432,0.2490071,0.37596819,-13.034246)"
         inkscape:path-effect="#path-effect22"
         sodipodi:type="rect"
         d="M -2.6533105,141.05814 H 12.800789 a 2.6458333,2.6458333 45 0 1 2.645833,2.64583 v 3.29187 a 2.6458333,2.6458333 135 0 1 -2.645833,2.64584 H -2.6533105 a 2.6458333,2.6458333 45 0 1 -2.6458333,-2.64584 v -3.29187 a 2.6458333,2.6458333 135 0 1 2.6458333,-2.64583 z" /><path
         style="fill:#552ca3;fill-opacity:1;stroke:none;stroke-width:10.5833;stroke-linecap:round;stroke-linejoin:round;stroke-miterlimit:10;stroke-dasharray:none"
         id="path23"
         width="20.745766"
         height="11.389512"
         x="131.46736"
         y="-10.193883"
         transform="matrix(0.14376432,0.2490071,-0.2490071,0.14376432,0.59117615,-13.081953)"
         inkscape:path-effect="#path-effect26"
         sodipodi:type="rect"
         d="m 134.11319,-10.193883 h 15.4541 a 2.6458333,2.6458333 45 0 1 2.64584,2.6458334 v 6.0978454 a 2.6458333,2.6458333 135 0 1 -2.64584,2.6458333 h -15.4541 a 2.6458333,2.6458333 45 0 1 -2.64583,-2.6458333 v -6.0978454 a 2.6458333,2.6458333 135 0 1 2.64583,-2.6458334 z" /><path
         style="fill:#7945d4;fill-opacity:1;stroke:none;stroke-width:10.5833;stroke-linecap:round;stroke-linejoin:round;stroke-miterlimit:10;stroke-dasharray:none"
         id="path24"
         width="20.745766"
         height="8.58354"
         x="-5.2991438"
         y="141.05814"
         transform="matrix(0.2490071,-0.14376432,0.14376432,0.2490071,0.37596819,-13.034246)"
         inkscape:path-effect="#path-effect28"
         sodipodi:type="rect"
         d="M -2.6533105,141.05814 H 12.800789 a 2.6458333,2.6458333 45 0 1 2.645833,2.64583 v 3.29187 a 2.6458333,2.6458333 135 0 1 -2.645833,2.64584 H -2.6533105 a 2.6458333,2.6458333 45 0 1 -2.6458333,-2.64584 v -3.29187 a 2.6458333,2.6458333 135 0 1 2.6458333,-2.64583 z" /><path
         id="path25"
         style="baseline-shift:baseline;display:inline;overflow:visible;opacity:1;fill:#8b4de0;fill-opacity:1;stroke:none;stroke-width:3.043;stroke-linecap:round;stroke-linejoin:round;stroke-miterlimit:10;stroke-dasharray:none;enable-background:accumulate;stop-color:#000000;stop-opacity:1"
         d="m 32.520156,15.128618 c -0.347353,-1.09e-4 -0.676022,0.156695 -0.894485,0.426731 l -3.491137,4.317427 c -0.931327,0.03146 -1.840618,0.291561 -2.647628,0.757486 l -5.463604,3.154443 c -0.815365,0.470767 -1.317648,1.340752 -1.317648,2.282262 v 24.23963 c 1e-6,0.840303 0.681202,1.521509 1.521505,1.521509 h 27.717114 c 0.840303,0 1.521496,-0.681194 1.521496,-1.521509 V 21.391004 c 0,-0.840303 0.02268,-2.212604 -0.156158,-3.032017 -0.304865,-1.396727 -1.04068,-2.459493 -2.069043,-2.970943 -0.30634,-0.152365 -0.730108,-0.236401 -1.174558,-0.25645 -0.02781,-0.0024 -0.05585,-0.0024 -0.08415,-0.0024 h -0.25467 z m 0.548718,2.300238 h 11.079702 c -1.338789,1.210253 -2.810688,2.104738 -5.235986,2.361152 -0.835254,0.08829 -5.466998,0.07951 -6.3073,0.07951 h -1.50991 z"
         sodipodi:nodetypes="cccccscsccssscsccccsscc" /><path
         id="rect15"
         style="fill:#ba75ff;fill-opacity:1;stroke:#000000;stroke-width:2.87529;stroke-linecap:round;stroke-linejoin:round;stroke-miterlimit:10;stroke-dasharray:none;stroke-opacity:1"
         d="m 26.944781,27.504317 c -0.565975,0 -1.131949,0.216829 -1.56563,0.650511 -0.867376,0.867363 -0.867376,2.263896 -1.3e-5,3.131271 l 5.57534,5.575339 -5.57534,5.575181 c -0.867363,0.867375 -0.867363,2.263908 0,3.131271 0.867376,0.867377 2.264056,0.867377 3.131431,0 l 5.575193,-5.575179 5.57518,5.575179 c 0.867376,0.867377 2.263909,0.867377 3.131272,0 0.867364,-0.867363 0.867364,-2.263896 0,-3.131271 l -5.575193,-5.575181 5.575193,-5.575339 c 0.867364,-0.867375 0.867364,-2.263908 0,-3.131271 -0.867363,-0.867376 -2.263896,-0.867376 -3.131272,0 l -5.575193,5.575179 -5.57518,-5.575179 c -0.433682,-0.433682 -0.999802,-0.650511 -1.565788,-0.650511 z" /><path
         id="path29"
         style="fill:#ba8ee6;fill-opacity:1;stroke:none;stroke-width:2.87529;stroke-linecap:round;stroke-linejoin:round;stroke-miterlimit:10;stroke-dasharray:none;stroke-opacity:1"
         d="m 26.944781,27.504317 c -0.565975,0 -1.131949,0.216829 -1.56563,0.650511 -0.867376,0.867363 -0.867376,2.263896 -1.3e-5,3.131271 l 5.57534,5.575339 -5.57534,5.575181 c -0.867363,0.867375 -0.867363,2.263908 0,3.131271 0.867376,0.867377 2.264056,0.867377 3.131431,0 l 5.575193,-5.575179 5.57518,5.575179 c 0.867376,0.867377 2.263909,0.867377 3.131272,0 0.867364,-0.867363 0.867364,-2.263896 0,-3.131271 l -5.575193,-5.575181 5.575193,-5.575339 c 0.867364,-0.867375 0.867364,-2.263908 0,-3.131271 -0.867363,-0.867376 -2.263896,-0.867376 -3.131272,0 l -5.575193,5.575179 -5.57518,-5.575179 c -0.433682,-0.433682 -0.999802,-0.650511 -1.565788,-0.650511 z" /></g><text
       xml:space="preserve"
       style="font-weight:bold;font-size:3.72863px;font-family:Poppins;-inkscape-font-specification:'Poppins Bold';text-align:center;writing-mode:lr-tb;direction:ltr;text-anchor:middle;fill:#f9f9f9;stroke:none;stroke-width:18.643;stroke-linecap:round;stroke-linejoin:round;stroke-miterlimit:10"
       x="135.38464"
       y="8.2734747"
       id="text1"><tspan
         sodipodi:role="line"
         id="tspan1"
         style="font-style:normal;font-variant:normal;font-weight:normal;font-stretch:normal;font-family:Poppins;-inkscape-font-specification:Poppins;writing-mode:lr-tb;fill:#f9f9f9;stroke:none;stroke-width:18.643"
         x="135.38464"
         y="8.2734747">Plan your trip's fuel budget</tspan></text><text
       xml:space="preserve"
       style="font-weight:bold;font-size:6.92822px;font-family:Poppins;-inkscape-font-specification:'Poppins Bold';text-align:center;writing-mode:lr-tb;direction:ltr;text-anchor:middle;fill:#f9f9f9;stroke:none;stroke-width:34.6409;stroke-linecap:round;stroke-linejoin:round;stroke-miterlimit:10"
       x="135.30949"
       y="40.648472"
       id="text2"><tspan
         sodipodi:role="line"
         id="tspan2"
         style="font-style:normal;font-variant:normal;font-weight:bold;font-stretch:normal;font-family:Poppins;-inkscape-font-specification:'Poppins Bold';writing-mode:lr-tb;fill:#f9f9f9;stroke:none;stroke-width:34.6409"
         x="135.30949"
         y="40.648472">Fuel Cost Calculator</tspan></text><path
       style="opacity:0.352218;fill:none;fill-opacity:1;stroke:#ffffff;stroke-width:4;stroke-linecap:round;stroke-linejoin:round;stroke-miterlimit:10;stroke-dasharray:none;stroke-dashoffset:0;stroke-opacity:1;marker-end:url(#Triangle)"
       d="m 54.614491,64.205406 0,25.809447 35.845448,0"
       id="path55"
       sodipodi:nodetypes="ccc" /><g
       id="g57"
       transform="translate(0,4.5424562)"><rect
         style="opacity:0.0842676;mix-blend-mode:normal;fill:#000000;stroke:none;stroke-width:10.5833;stroke-linecap:round;stroke-linejoin:round;stroke-miterlimit:10;filter:url(#filter3)"
         id="rect35"
         width="83.232307"
         height="18.542681"
         x="9.3971949"
         y="74.954704"
         ry="4.0112386"
         transform="matrix(0.84183392,0,0,1,92.5219,29.355588)" /><rect
         style="fill:#f9f9f9;stroke:none;stroke-width:9.828;stroke-linecap:round;stroke-linejoin:round;stroke-miterlimit:10"
         id="rect36"
         width="71.776131"
         height="18.542681"
         x="99.578598"
         y="103.25196"
         ry="4.0112386" /><text
         xml:space="preserve"
         style="font-style:normal;font-variant:normal;font-weight:normal;font-stretch:normal;font-size:5.18589px;font-family:Poppins;-inkscape-font-specification:Poppins;writing-mode:lr-tb;direction:ltr;fill:#000000;fill-opacity:1;stroke:none;stroke-width:25.9294;stroke-linecap:round;stroke-linejoin:round;stroke-miterlimit:10"
         x="110.25546"
         y="111.07865"
         id="text38"><tspan
           sodipodi:role="line"
           style="stroke-width:25.9294"
           x="110.25546"
           y="111.07865"
           id="tspan44">Estimated Trip Cost</tspan></text><text
         xml:space="preserve"
         style="font-style:normal;font-variant:normal;font-weight:normal;font-stretch:normal;font-size:5.18589px;font-family:Poppins;-inkscape-font-specification:Poppins;text-align:center;writing-mode:lr-tb;direction:ltr;text-anchor:middle;fill:#000000;fill-opacity:1;stroke:none;stroke-width:25.9294;stroke-linecap:round;stroke-linejoin:round;stroke-miterlimit:10"
         x="135.21257"
         y="117.91441"
         id="text39"><tspan
           sodipodi:role="line"
           id="tspan39"
           style="font-style:normal;font-variant:normal;font-weight:bold;font-stretch:normal;font-family:Poppins;-inkscape-font-specification:'Poppins Bold';stroke-width:25.9294"
           x="135.21257"
           y="117.91441">9,85 €</tspan></text></g><g
       id="g40"
       transform="translate(68.303851,34.213352)" /><g
       id="g41"
       transform="matrix(0.79030866,0,0,0.79030866,83.620661,45.51815)"
       style="stroke-width:0.379599;stroke-dasharray:none" /><path
       style="opacity:0.352218;fill:none;fill-opacity:1;stroke:#ffffff;stroke-width:4;stroke-linecap:round;stroke-linejoin:round;stroke-miterlimit:10;stroke-dasharray:none;stroke-dashoffset:0;stroke-opacity:1;marker-end:url(#Triangle)"
       d="m 216.31882,64.205406 0,25.809447 -35.84545,0"
       id="path61"
       sodipodi:nodetypes="ccc" /><path
       style="opacity:0.352218;fill:none;fill-opacity:1;stroke:#ffffff;stroke-width:4;stroke-linecap:round;stroke-linejoin:round;stroke-miterlimit:10;stroke-dasharray:none;stroke-dashoffset:0;stroke-opacity:1;marker-end:url(#Triangle)"
       d="m 135.46666,64.365586 0,12.943697"
       id="path62"
       sodipodi:nodetypes="cc" /><rect
       style="opacity:0.0842676;mix-blend-mode:normal;fill:#000000;stroke:none;stroke-width:10.5833;stroke-linecap:round;stroke-linejoin:round;stroke-miterlimit:10;filter:url(#filter3)"
       id="rect2"
       width="83.232307"
       height="18.542681"
       x="9.3971949"
       y="74.954704"
       ry="4.0112386"
       transform="matrix(0.84183392,0,0,1,11.669725,-24.353415)" /><rect
       style="fill:#f9f9f9;stroke:none;stroke-width:9.828;stroke-linecap:round;stroke-linejoin:round;stroke-miterlimit:10"
       id="rect3"
       width="71.776131"
       height="18.542681"
       x="18.726425"
       y="49.542953"
       ry="4.0112386" /><rect
       style="fill:#d5cbeb;fill-opacity:1;stroke:none;stroke-width:10.5833;stroke-linecap:round;stroke-linejoin:round;stroke-miterlimit:10"
       id="rect4"
       width="15.684038"
       height="6.5056825"
       x="71.659592"
       y="47.348442"
       rx="2.1073551"
       ry="0" /><text
       xml:space="preserve"
       style="font-style:normal;font-variant:normal;font-weight:bold;font-stretch:normal;font-size:2.84144px;font-family:Poppins;-inkscape-font-specification:'Poppins Bold';text-align:center;writing-mode:lr-tb;direction:ltr;text-anchor:middle;fill:#d5cbeb;fill-opacity:1;stroke:none;stroke-width:14.2071;stroke-linecap:round;stroke-linejoin:round;stroke-miterlimit:10"
       x="79.480301"
       y="51.698082"
       id="text4"><tspan
         sodipodi:role="line"
         id="tspan4"
         style="font-style:normal;font-variant:normal;font-weight:normal;font-stretch:normal;font-family:Poppins;-inkscape-font-specification:Poppins;fill:#000000;fill-opacity:1;stroke-width:14.2071"
         x="79.480301"
         y="51.698082">km  mi</tspan></text><g
       id="g6"
       transform="translate(10.40476,-24.033783)"><text
         xml:space="preserve"
         style="font-style:normal;font-variant:normal;font-weight:normal;font-stretch:normal;font-size:5.18589px;font-family:Poppins;-inkscape-font-specification:Poppins;writing-mode:lr-tb;direction:ltr;opacity:1;fill:#000000;fill-opacity:1;stroke:none;stroke-width:25.9294;stroke-linecap:round;stroke-linejoin:round;stroke-miterlimit:10"
         x="30.02083"
         y="81.403427"
         id="text5"><tspan
           sodipodi:role="line"
           id="tspan5"
           style="stroke-width:25.9294"
           x="30.02083"
           y="81.403427">Distance</tspan></text><text
         xml:space="preserve"
         style="font-style:normal;font-variant:normal;font-weight:normal;font-stretch:normal;font-size:5.18589px;font-family:Poppins;-inkscape-font-specification:Poppins;writing-mode:lr-tb;direction:ltr;opacity:1;fill:#000000;fill-opacity:1;stroke:none;stroke-width:25.9294;stroke-linecap:round;stroke-linejoin:round;stroke-miterlimit:10"
         x="30.02083"
         y="88.239189"
         id="text6"><tspan
           sodipodi:role="line"
           id="tspan6"
           style="font-style:normal;font-variant:normal;font-weight:bold;font-stretch:normal;font-family:Poppins;-inkscape-font-specification:'Poppins Bold';stroke-width:25.9294"
           x="30.02083"
           y="88.239189">100 km</tspan></text></g><g
       id="g11"
       transform="translate(-3.1851578,-24.353415)"><g
         id="g9"
         transform="translate(-9.1550172,4.8577642)"><path
           id="path7"
           style="opacity:1;fill:#987ce6;fill-opacity:1;stroke:#000000;stroke-width:0.3;stroke-linecap:round;stroke-linejoin:round;stroke-miterlimit:10;stroke-dasharray:none;stroke-opacity:1"
           d="m 38.791947,76.513159 c -1.295655,1.6e-4 -2.34595,1.050455 -2.34611,2.34611 -1.68e-4,0.659005 0.202698,1.04341 0.49196,1.438672 l 1.85415,2.434477 1.854151,-2.434477 c 0.289262,-0.395262 0.492127,-0.779667 0.491959,-1.438672 -1.6e-4,-1.295655 -1.050455,-2.34595 -2.34611,-2.34611 z" /><circle
           style="opacity:1;fill:#ffffff;fill-opacity:1;stroke:#000000;stroke-width:0.3;stroke-linecap:round;stroke-linejoin:round;stroke-miterlimit:10;stroke-dasharray:none;stroke-opacity:1"
           id="circle9"
           cx="38.792103"
           cy="78.859428"
           r="1.0279082" /></g><g
         id="g10"
         transform="matrix(0.79030866,0,0,0.79030866,6.1617927,16.162562)"
         style="stroke-width:0.379599;stroke-dasharray:none"><path
           id="path9"
           style="opacity:1;fill:#987ce6;fill-opacity:1;stroke:#000000;stroke-width:0.379599;stroke-linecap:round;stroke-linejoin:round;stroke-miterlimit:10;stroke-dasharray:none;stroke-opacity:1"
           d="m 38.791947,76.513159 c -1.295655,1.6e-4 -2.34595,1.050455 -2.34611,2.34611 -1.68e-4,0.659005 0.202698,1.04341 0.49196,1.438672 l 1.85415,2.434477 1.854151,-2.434477 c 0.289262,-0.395262 0.492127,-0.779667 0.491959,-1.438672 -1.6e-4,-1.295655 -1.050455,-2.34595 -2.34611,-2.34611 z" /><circle
           style="opacity:1;fill:#ffffff;fill-opacity:1;stroke:#000000;stroke-width:0.379599;stroke-linecap:round;stroke-linejoin:round;stroke-miterlimit:10;stroke-dasharray:none;stroke-opacity:1"
           id="circle10"
           cx="38.792103"
           cy="78.859428"
           r="1.0279082" /></g><path
         style="opacity:1;fill:none;fill-opacity:1;stroke:#000000;stroke-width:0.3;stroke-linecap:round;stroke-linejoin:round;stroke-miterlimit:10;stroke-dasharray:0.6, 0.9;stroke-dashoffset:0;stroke-opacity:1"
         d="m 29.636929,87.590182 c 10.192831,-1.05911 1.571477,-5.615052 7.182474,-6.043475"
         id="path10"
         sodipodi:nodetypes="cc" /></g><rect
       style="opacity:0.0842676;mix-blend-mode:normal;fill:#000000;stroke:none;stroke-width:10.5833;stroke-linecap:round;stroke-linejoin:round;stroke-miterlimit:10;filter:url(#filter3)"
       id="rect45"
       width="83.232307"
       height="18.542681"
       x="9.3971949"
       y="74.954704"
       ry="4.0112386"
       transform="matrix(0.84183392,0,0,1,173.37406,-24.353415)" /><rect
       style="fill:#f9f9f9;stroke:none;stroke-width:9.828;stroke-linecap:round;stroke-linejoin:round;stroke-miterlimit:10"
       id="rect46"
       width="71.776131"
       height="18.542681"
       x="180.43076"
       y="49.542953"
       ry="4.0112386" /><rect
       style="fill:#d5cbeb;fill-opacity:1;stroke:none;stroke-width:12.1256;stroke-linecap:round;stroke-linejoin:round;stroke-miterlimit:10"
       id="rect47"
       width="20.588463"
       height="6.5056825"
       x="228.02458"
       y="47.348442"
       rx="0"
       ry="1.9220043" /><text
       xml:space="preserve"
       style="font-style:normal;font-variant:normal;font-weight:bold;font-stretch:normal;font-size:2.84144px;font-family:Poppins;-inkscape-font-specification:'Poppins Bold';text-align:center;writing-mode:lr-tb;direction:ltr;text-anchor:middle;fill:#d5cbeb;fill-opacity:1;stroke:none;stroke-width:14.2071;stroke-linecap:round;stroke-linejoin:round;stroke-miterlimit:10"
       x="238.34581"
       y="51.698082"
       id="text47"><tspan
         sodipodi:role="line"
         id="tspan47"
         style="font-style:normal;font-variant:normal;font-weight:normal;font-stretch:normal;font-family:Poppins;-inkscape-font-specification:Poppins;fill:#000000;fill-opacity:1;stroke-width:14.2071"
         x="238.34581"
         y="51.698082">€/L  $/gal ...</tspan></text><g
       id="g49"
       transform="translate(172.10909,-24.033783)"><text
         xml:space="preserve"
         style="font-style:normal;font-variant:normal;font-weight:normal;font-stretch:normal;font-size:5.18589px;font-family:Poppins;-inkscape-font-specification:Poppins;writing-mode:lr-tb;direction:ltr;opacity:1;fill:#000000;fill-opacity:1;stroke:none;stroke-width:25.9294;stroke-linecap:round;stroke-linejoin:round;stroke-miterlimit:10"
         x="30.02083"
         y="81.403427"
         id="text48"><tspan
           sodipodi:role="line"
           id="tspan48"
           style="stroke-width:25.9294"
           x="30.02083"
           y="81.403427">Fuel Price</tspan></text><text
         xml:space="preserve"
         style="font-style:normal;font-variant:normal;font-weight:normal;font-stretch:normal;font-size:5.18589px;font-family:Poppins;-inkscape-font-specification:Poppins;writing-mode:lr-tb;direction:ltr;opacity:1;fill:#000000;fill-opacity:1;stroke:none;stroke-width:25.9294;stroke-linecap:round;stroke-linejoin:round;stroke-miterlimit:10"
         x="30.02083"
         y="88.239189"
         id="text49"><tspan
           sodipodi:role="line"
           id="tspan49"
           style="font-style:normal;font-variant:normal;font-weight:bold;font-stretch:normal;font-family:Poppins;-inkscape-font-specification:'Poppins Bold';stroke-width:25.9294"
           x="30.02083"
           y="88.239189">1,29  €/L</tspan></text></g><rect
       style="opacity:0.0842676;mix-blend-mode:normal;fill:#000000;stroke:none;stroke-width:10.5833;stroke-linecap:round;stroke-linejoin:round;stroke-miterlimit:10;filter:url(#filter3)"
       id="rect12"
       width="83.232307"
       height="18.542681"
       x="9.3971949"
       y="74.954704"
       ry="4.0112386"
       transform="matrix(0.84183392,0,0,1,92.521893,-24.353415)" /><rect
       style="fill:#f9f9f9;stroke:none;stroke-width:9.828;stroke-linecap:round;stroke-linejoin:round;stroke-miterlimit:10"
       id="rect13"
       width="71.776131"
       height="18.542681"
       x="99.578598"
       y="49.542953"
       ry="4.0112386" /><text
       xml:space="preserve"
       style="font-style:normal;font-variant:normal;font-weight:normal;font-stretch:normal;font-size:5.18589px;font-family:Poppins;-inkscape-font-specification:Poppins;writing-mode:lr-tb;direction:ltr;fill:#000000;fill-opacity:1;stroke:none;stroke-width:25.9294;stroke-linecap:round;stroke-linejoin:round;stroke-miterlimit:10"
       x="121.27776"
       y="57.369644"
       id="text15"><tspan
         sodipodi:role="line"
         id="tspan15"
         style="stroke-width:25.9294"
         x="121.27776"
         y="57.369644">Mileage</tspan></text><text
       xml:space="preserve"
       style="font-style:normal;font-variant:normal;font-weight:normal;font-stretch:normal;font-size:5.18589px;font-family:Poppins;-inkscape-font-specification:Poppins;writing-mode:lr-tb;direction:ltr;fill:#000000;fill-opacity:1;stroke:none;stroke-width:25.9294;stroke-linecap:round;stroke-linejoin:round;stroke-miterlimit:10"
       x="121.27776"
       y="64.205406"
       id="text16"><tspan
         sodipodi:role="line"
         id="tspan16"
         style="font-style:normal;font-variant:normal;font-weight:bold;font-stretch:normal;font-family:Poppins;-inkscape-font-specification:'Poppins Bold';stroke-width:25.9294"
         x="121.27776"
         y="64.205406">37 mpg</tspan></text><rect
       style="fill:#d5cbeb;fill-opacity:1;stroke:none;stroke-width:13.898;stroke-linecap:round;stroke-linejoin:round;stroke-miterlimit:10"
       id="rect53"
       width="27.047417"
       height="6.5056825"
       x="141.51312"
       y="47.348442"
       rx="0"
       ry="1.9220043" /><text
       xml:space="preserve"
       style="font-style:normal;font-variant:normal;font-weight:bold;font-stretch:normal;font-size:2.84144px;font-family:Poppins;-inkscape-font-specification:'Poppins Bold';text-align:center;writing-mode:lr-tb;direction:ltr;text-anchor:middle;fill:#d5cbeb;fill-opacity:1;stroke:none;stroke-width:14.2071;stroke-linecap:round;stroke-linejoin:round;stroke-miterlimit:10"
       x="155.06383"
       y="51.698082"
       id="text53"><tspan
         sodipodi:role="line"
         id="tspan53"
         style="font-style:normal;font-variant:normal;font-weight:normal;font-stretch:normal;font-family:Poppins;-inkscape-font-specification:Poppins;fill:#000000;fill-opacity:1;stroke-width:14.2071"
         x="155.06383"
         y="51.698082">L/100km   mpg</tspan></text><path
       style="opacity:0.352218;fill:none;fill-opacity:1;stroke:#ffffff;stroke-width:4;stroke-linecap:round;stroke-linejoin:round;stroke-miterlimit:10;stroke-dasharray:none;stroke-dashoffset:0;stroke-opacity:1;marker-end:url(#Triangle)"
       d="m 135.46666,91.07302 v 10.0252"
       id="path64"
       sodipodi:nodetypes="cc" /><g
       id="g64"
       transform="translate(-7.175293e-6,-7.7528617)"><rect
         style="opacity:0.0842676;mix-blend-mode:normal;fill:#000000;stroke:none;stroke-width:10.5833;stroke-linecap:round;stroke-linejoin:round;stroke-miterlimit:10;filter:url(#filter3)"
         id="rect62"
         width="83.232307"
         height="18.542681"
         x="9.3971949"
         y="74.954704"
         ry="9.2713404"
         transform="matrix(0.84183392,0,0,0.58770179,92.5219,48.8899)" /><rect
         style="fill:#7c54c6;fill-opacity:1;stroke:none;stroke-width:7.53431;stroke-linecap:round;stroke-linejoin:round;stroke-miterlimit:10"
         id="rect63"
         width="71.776131"
         height="10.897567"
         x="99.578598"
         y="92.318932"
         ry="5.4487834" /><text
         xml:space="preserve"
         style="font-style:normal;font-variant:normal;font-weight:normal;font-stretch:normal;font-size:5.18589px;font-family:Poppins;-inkscape-font-specification:Poppins;writing-mode:lr-tb;direction:ltr;fill:#ffffff;fill-opacity:1;stroke:none;stroke-width:25.9294;stroke-linecap:round;stroke-linejoin:round;stroke-miterlimit:10"
         x="122.89866"
         y="99.663155"
         id="text63"><tspan
           sodipodi:role="line"
           style="fill:#ffffff;fill-opacity:1;stroke-width:25.9294"
           x="122.89866"
           y="99.663155"
           id="tspan63">Calculate</tspan></text></g><g
       id="g73"><path
         id="path65"
         style="fill:#f4c268;fill-opacity:1;stroke:#000000;stroke-width:0.3;stroke-linecap:round;stroke-linejoin:round;stroke-miterlimit:10;stroke-dasharray:none;stroke-dashoffset:0;stroke-opacity:1"
         d="m 187.64296,59.501528 v 1.372136 a 3.5573116,1.3744248 0 0 0 0,0.0023 3.5573116,1.3744248 0 0 0 3.5574,1.374369 3.5573116,1.3744248 0 0 0 3.55739,-1.374369 v -1.374368 h -3.55293 -0.009 z" /><path
         id="path67"
         style="fill:#f4c268;fill-opacity:1;stroke:#000000;stroke-width:0.3;stroke-linecap:round;stroke-linejoin:round;stroke-miterlimit:10;stroke-dasharray:none;stroke-dashoffset:0;stroke-opacity:1"
         d="m 187.64296,58.127157 v 1.372138 a 3.5573116,1.3744248 0 0 0 0,0.0021 3.5573116,1.3744248 0 0 0 3.5574,1.374369 3.5573116,1.3744248 0 0 0 3.55739,-1.374369 v -1.374368 h -3.55293 -0.009 z" /><path
         id="path68"
         style="fill:#f4c268;fill-opacity:1;stroke:#000000;stroke-width:0.3;stroke-linecap:round;stroke-linejoin:round;stroke-miterlimit:10;stroke-dasharray:none;stroke-dashoffset:0;stroke-opacity:1"
         d="m 187.64296,56.752789 v 1.372137 a 3.5573116,1.3744248 0 0 0 0,0.0022 3.5573116,1.3744248 0 0 0 3.5574,1.374368 3.5573116,1.3744248 0 0 0 3.55739,-1.374368 v -1.37437 h -3.55293 -0.009 z" /><ellipse
         style="fill:#f4c268;fill-opacity:1;stroke:#000000;stroke-width:0.3;stroke-linecap:round;stroke-linejoin:round;stroke-miterlimit:10;stroke-dasharray:none;stroke-dashoffset:0;stroke-opacity:1"
         id="ellipse65"
         cx="191.20033"
         cy="56.752686"
         rx="3.5573113"
         ry="1.3744248" /></g><g
       id="g72"
       transform="translate(0.20991816,1.1834396)"><path
         style="fill:#aeaeae;fill-opacity:1;stroke:#000000;stroke-width:0.219783;stroke-linecap:round;stroke-linejoin:round;stroke-miterlimit:10;stroke-dasharray:none;stroke-dashoffset:0;stroke-opacity:1"
         d="m 393.00414,-336.81434 h -1.46328 a 0.63876066,0.63876066 157.5 0 0 -0.45167,0.18709 l -1.48857,1.48857 a 0.26458153,0.26458153 89.999805 0 0 0,0.37418 l 0.36097,0.36096 a 0.26458252,0.26458252 179.99952 0 0 0.37418,0 l 1.1459,-1.14593 a 0.63875175,0.63875175 157.49972 0 1 0.45167,-0.18709 h 1.0708 a 0.26458333,0.26458333 135 0 0 0.26458,-0.26458 v -0.54862 a 0.26458333,0.26458333 45 0 0 -0.26458,-0.26458 z"
         id="path70"
         inkscape:path-effect="#path-effect71"
         inkscape:original-d="m 393.26872,-336.81434 h -1.99244 l -1.86275,1.86275 0.73515,0.73514 1.52008,-1.52011 h 1.59996 z"
         sodipodi:nodetypes="ccccccc"
         transform="matrix(0.96519075,0.96519075,-0.96519075,0.96519075,-596.02643,0.33719389)" /><path
         style="fill:#987ce6;fill-opacity:1;stroke:#000000;stroke-width:0.219783;stroke-linecap:round;stroke-linejoin:round;stroke-miterlimit:10;stroke-dasharray:none;stroke-dashoffset:0;stroke-opacity:1"
         d="m 398.77784,-337.58586 -0.38211,2.65897 a 0.30532451,0.30532451 139.08897 0 1 -0.30222,0.26189 h -3.35876 a 0.63876066,0.63876066 22.5 0 1 -0.45167,-0.18709 l -0.55969,-0.55969 a 0.63876066,0.63876066 22.5 0 0 -0.45167,-0.18709 h -0.0998 a 0.26458333,0.26458333 45 0 1 -0.26458,-0.26458 l 0,-1.07173 a 0.63875583,0.63875583 112.50015 0 1 0.18709,-0.45167 l 0.5597,-0.55969 a 0.80308988,0.80308988 153.23512 0 1 0.44875,-0.22634 l 1.00134,-0.15018 a 0.3446167,0.3446167 28.985588 0 1 0.36716,0.20339 0.37484265,0.37484265 30.004657 0 0 0.34959,0.20188 l 2.72996,0.0639 a 0.23475128,0.23475128 49.758939 0 1 0.22687,0.26808 z"
         id="path69"
         inkscape:path-effect="#path-effect70"
         inkscape:original-d="m 398.81548,-337.84775 -0.45739,3.18275 h -3.88792 l -0.93387,-0.93387 h -0.62892 v -1.60089 l 0.93388,-0.93387 1.52466,-0.22868 0.19058,0.43833 z"
         transform="matrix(0.96519075,0.96519075,-0.96519075,0.96519075,-596.02643,0.33719389)" /><rect
         style="fill:#ffffff;fill-opacity:1;stroke:#000000;stroke-width:0.3;stroke-linecap:round;stroke-linejoin:round;stroke-miterlimit:10;stroke-dasharray:none;stroke-dashoffset:0;stroke-opacity:1"
         id="rect71"
         width="3.4798987"
         height="1.8878802"
         x="118.32337"
         y="-38.104725"
         ry="0.42265978"
         transform="rotate(45)" /><path
         style="fill:none;fill-opacity:1;stroke:#000000;stroke-width:0.3;stroke-linecap:round;stroke-linejoin:round;stroke-miterlimit:10;stroke-dasharray:none;stroke-dashoffset:0;stroke-opacity:1"
         d="m 110.65492,56.900074 c -0.23282,0.849195 0.44461,1.506702 0.95267,2.014769"
         id="path71" /><path
         style="fill:none;fill-opacity:1;stroke:#000000;stroke-width:0.219783;stroke-linecap:round;stroke-linejoin:round;stroke-miterlimit:10;stroke-dasharray:none;stroke-dashoffset:0;stroke-opacity:1"
         d="m 116.4297,46.235302 h 1.02985 a 1.5444062,1.5444062 18.913222 0 1 0.94714,0.324523 l 0.77405,0.600984"
         id="path72"
         inkscape:path-effect="#path-effect72"
         inkscape:original-d="m 116.4297,46.235302 h 1.55902 l 1.19202,0.925507"
         transform="matrix(0.96519075,0.96519075,-0.96519075,0.96519075,46.396218,-97.185998)" /></g></g></svg>
