<?xml version="1.0" encoding="UTF-8" standalone="no"?>
<!-- Created with Inkscape (http://www.inkscape.org/) -->

<svg
   width="256"
   height="256"
   viewBox="0 0 67.733332 67.733333"
   version="1.1"
   id="svg1"
   xml:space="preserve"
   sodipodi:docname="icon.svg"
   inkscape:version="1.4.3 (0d15f75042, 2025-12-25)"
   inkscape:export-filename="icon.png"
   inkscape:export-xdpi="192"
   inkscape:export-ydpi="192"
   xmlns:inkscape="http://www.inkscape.org/namespaces/inkscape"
   xmlns:sodipodi="http://sodipodi.sourceforge.net/DTD/sodipodi-0.dtd"
   xmlns="http://www.w3.org/2000/svg"
   xmlns:svg="http://www.w3.org/2000/svg"><sodipodi:namedview
     id="namedview1"
     pagecolor="#ffffff"
     bordercolor="#000000"
     borderopacity="0.25"
     inkscape:showpageshadow="2"
     inkscape:pageopacity="0.0"
     inkscape:pagecheckerboard="0"
     inkscape:deskcolor="#d1d1d1"
     inkscape:document-units="mm"
     inkscape:zoom="3.0366018"
     inkscape:cx="51.0439"
     inkscape:cy="75.248589"
     inkscape:window-width="2544"
     inkscape:window-height="1541"
     inkscape:window-x="0"
     inkscape:window-y="0"
     inkscape:window-maximized="1"
     inkscape:current-layer="g30"
     showgrid="false"
     inkscape:export-bgcolor="#ffffffff" /><defs
     id="defs1"><inkscape:path-effect
       effect="fillet_chamfer"
       id="path-effect28"
       is_visible="true"
       lpeversion="1"
       nodesatellites_param="F,0,0,1,0,2.6458333,0,1 @ F,0,0,1,0,2.6458333,0,1 @ F,0,0,1,0,2.6458333,0,1 @ F,0,0,1,0,2.6458333,0,1"
       radius="10"
       unit="px"
       method="auto"
       mode="F"
       chamfer_steps="1"
       flexible="false"
       use_knot_distance="true"
       apply_no_radius="true"
       apply_with_radius="true"
       only_selected="false"
       hide_knots="false" /><inkscape:path-effect
       effect="fillet_chamfer"
       id="path-effect26"
       is_visible="true"
       lpeversion="1"
       nodesatellites_param="F,0,0,1,0,2.6458333,0,1 @ F,0,0,1,0,2.6458333,0,1 @ F,0,0,1,0,2.6458333,0,1 @ F,0,0,1,0,2.6458333,0,1"
       radius="10"
       unit="px"
       method="auto"
       mode="F"
       chamfer_steps="1"
       flexible="false"
       use_knot_distance="true"
       apply_no_radius="true"
       apply_with_radius="true"
       only_selected="false"
       hide_knots="false" /><inkscape:path-effect
       effect="fillet_chamfer"
       id="path-effect23"
       is_visible="true"
       lpeversion="1"
       nodesatellites_param="F,0,0,1,0,2.6458333,0,1 @ F,0,0,1,0,2.6458333,0,1 @ F,0,0,1,0,2.6458333,0,1 @ F,0,0,1,0,2.6458333,0,1"
       radius="10"
       unit="px"
       method="auto"
       mode="F"
       chamfer_steps="1"
       flexible="false"
       use_knot_distance="true"
       apply_no_radius="true"
       apply_with_radius="true"
       only_selected="false"
       hide_knots="false" /><inkscape:path-effect
       effect="fillet_chamfer"
       id="path-effect22"
       is_visible="true"
       lpeversion="1"
       nodesatellites_param="F,0,0,1,0,2.6458333,0,1 @ F,0,0,1,0,2.6458333,0,1 @ F,0,0,1,0,2.6458333,0,1 @ F,0,0,1,0,2.6458333,0,1"
       radius="10"
       unit="px"
       method="auto"
       mode="F"
       chamfer_steps="1"
       flexible="false"
       use_knot_distance="true"
       apply_no_radius="true"
       apply_with_radius="true"
       only_selected="false"
       hide_knots="false" /><inkscape:path-effect
       effect="fillet_chamfer"
       id="path-effect21"
       is_visible="true"
       lpeversion="1"
       nodesatellites_param="F,0,0,1,0,5.2916665,0,1 @ F,0,0,1,0,5.2916665,0,1 @ F,0,0,1,0,5.2916665,0,1 @ F,0,0,1,0,5.2916665,0,1 @ F,0,0,1,0,5.2916665,0,1 @ F,0,0,1,0,5.2916665,0,1 @ F,0,0,1,0,5.2916665,0,1"
       radius="20"
       unit="px"
       method="auto"
       mode="F"
       chamfer_steps="1"
       flexible="false"
       use_knot_distance="true"
       apply_no_radius="true"
       apply_with_radius="true"
       only_selected="false"
       hide_knots="false" /><inkscape:path-effect
       effect="fillet_chamfer"
       id="path-effect20"
       is_visible="true"
       lpeversion="1"
       nodesatellites_param="F,0,0,1,0,0,0,1 @ F,0,0,1,0,9.3277474,0,1 @ F,0,0,1,0,0,0,1"
       radius="0"
       unit="px"
       method="auto"
       mode="F"
       chamfer_steps="1"
       flexible="false"
       use_knot_distance="true"
       apply_no_radius="true"
       apply_with_radius="true"
       only_selected="false"
       hide_knots="false" /><inkscape:path-effect
       effect="fillet_chamfer"
       id="path-effect11"
       is_visible="true"
       lpeversion="1"
       nodesatellites_param="F,0,0,1,0,0,0,1 @ F,0,0,1,0,9.3277474,0,1 @ F,0,0,1,0,0,0,1"
       radius="0"
       unit="px"
       method="auto"
       mode="F"
       chamfer_steps="1"
       flexible="false"
       use_knot_distance="true"
       apply_no_radius="true"
       apply_with_radius="true"
       only_selected="false"
       hide_knots="false" /></defs><g
     inkscape:label="Layer 1"
     inkscape:groupmode="layer"
     id="layer1"><g
       id="g30"
       transform="translate(0.29751696,0.94347768)"><g
         id="g1"><path
           id="path30"
           style="baseline-shift:baseline;display:inline;overflow:visible;opacity:1;fill:none;stroke:#000000;stroke-width:3.043;stroke-linecap:round;stroke-linejoin:round;stroke-miterlimit:10;stroke-dasharray:none;enable-background:accumulate;stop-color:#000000;stop-opacity:1"
           d="m 32.520156,15.128618 c -0.347353,-1.09e-4 -0.676022,0.156695 -0.894485,0.426731 l -3.491137,4.317427 c -0.931327,0.03146 -1.840618,0.291561 -2.647628,0.757486 l -5.463604,3.154443 c -0.815365,0.470767 -1.317648,1.340752 -1.317648,2.282262 v 24.23963 c 1e-6,0.840303 0.681202,1.521509 1.521505,1.521509 h 27.717114 c 0.840303,0 1.521496,-0.681194 1.521496,-1.521509 V 21.391004 c 0,-0.840303 0.02268,-2.212604 -0.156158,-3.032017 -0.304865,-1.396727 -1.04068,-2.459493 -2.069043,-2.970943 -0.30634,-0.152365 -0.730108,-0.236401 -1.174558,-0.25645 -0.02781,-0.0024 -0.05585,-0.0024 -0.08415,-0.0024 h -0.25467 z m 0.548718,2.300238 h 11.079702 c -1.338789,1.210253 -2.810688,2.104738 -5.235986,2.361152 -0.835254,0.08829 -5.466998,0.07951 -6.3073,0.07951 h -1.50991 z"
           sodipodi:nodetypes="cccccscsccssscsccccsscc" /><path
           style="baseline-shift:baseline;display:inline;overflow:visible;opacity:1;fill:#000000;fill-opacity:1;stroke:#000000;stroke-width:3.043;stroke-linecap:round;stroke-linejoin:round;stroke-miterlimit:10;stroke-dasharray:none;stroke-opacity:1;enable-background:accumulate;stop-color:#000000;stop-opacity:1"
           d="m 15.198251,14.035206 -2.254179,0.174097 a 1.1501131,1.1501131 0 0 0 -1.058015,1.235473 1.1501131,1.1501131 0 0 0 1.234913,1.058009 l 2.254741,-0.174084 c 1.234162,-0.09549 2.417686,0.484718 3.097672,1.519068 l 3.328481,5.063756 a 1.1501131,1.1501131 0 0 0 1.592638,0.329096 1.1501131,1.1501131 0 0 0 0.329647,-1.592642 l -3.329043,-5.063767 c -1.13789,-1.730886 -3.1316,-2.708725 -5.196855,-2.549006 z"
           id="path28" /><path
           style="fill:#4c14bb;fill-opacity:1;stroke:#000000;stroke-width:10.5833;stroke-linecap:round;stroke-linejoin:round;stroke-miterlimit:10;stroke-dasharray:none"
           id="rect19"
           width="20.745766"
           height="11.389512"
           x="131.46736"
           y="-10.193883"
           transform="matrix(0.14376432,0.2490071,-0.2490071,0.14376432,0.59117615,-13.081953)"
           inkscape:path-effect="#path-effect23"
           sodipodi:type="rect"
           d="m 134.11319,-10.193883 h 15.4541 a 2.6458333,2.6458333 45 0 1 2.64584,2.6458334 v 6.0978454 a 2.6458333,2.6458333 135 0 1 -2.64584,2.6458333 h -15.4541 a 2.6458333,2.6458333 45 0 1 -2.64583,-2.6458333 v -6.0978454 a 2.6458333,2.6458333 135 0 1 2.64583,-2.6458334 z" /><path
           style="baseline-shift:baseline;display:inline;overflow:visible;opacity:1;vector-effect:none;fill:#c9b6d6;fill-opacity:1;stroke-width:0.287529;stroke-linecap:round;stroke-linejoin:round;stroke-miterlimit:10;enable-background:accumulate;stop-color:#000000;stop-opacity:1"
           d="m 15.198251,14.035206 -2.254179,0.174097 a 1.1501131,1.1501131 0 0 0 -1.058015,1.235473 1.1501131,1.1501131 0 0 0 1.234913,1.058009 l 2.254741,-0.174084 c 1.234162,-0.09549 2.417686,0.484718 3.097672,1.519068 l 3.328481,5.063756 a 1.1501131,1.1501131 0 0 0 1.592638,0.329096 1.1501131,1.1501131 0 0 0 0.329647,-1.592642 l -3.329043,-5.063767 c -1.13789,-1.730886 -3.1316,-2.708725 -5.196855,-2.549006 z"
           id="path18" /><path
           style="fill:#732dec;fill-opacity:1;stroke:#000000;stroke-width:10.5833;stroke-linecap:round;stroke-linejoin:round;stroke-miterlimit:10;stroke-dasharray:none"
           id="rect18"
           width="20.745766"
           height="8.58354"
           x="-5.2991438"
           y="141.05814"
           transform="matrix(0.2490071,-0.14376432,0.14376432,0.2490071,0.37596819,-13.034246)"
           inkscape:path-effect="#path-effect22"
           sodipodi:type="rect"
           d="M -2.6533105,141.05814 H 12.800789 a 2.6458333,2.6458333 45 0 1 2.645833,2.64583 v 3.29187 a 2.6458333,2.6458333 135 0 1 -2.645833,2.64584 H -2.6533105 a 2.6458333,2.6458333 45 0 1 -2.6458333,-2.64584 v -3.29187 a 2.6458333,2.6458333 135 0 1 2.6458333,-2.64583 z" /><path
           style="fill:#552ca3;fill-opacity:1;stroke:none;stroke-width:10.5833;stroke-linecap:round;stroke-linejoin:round;stroke-miterlimit:10;stroke-dasharray:none"
           id="path23"
           width="20.745766"
           height="11.389512"
           x="131.46736"
           y="-10.193883"
           transform="matrix(0.14376432,0.2490071,-0.2490071,0.14376432,0.59117615,-13.081953)"
           inkscape:path-effect="#path-effect26"
           sodipodi:type="rect"
           d="m 134.11319,-10.193883 h 15.4541 a 2.6458333,2.6458333 45 0 1 2.64584,2.6458334 v 6.0978454 a 2.6458333,2.6458333 135 0 1 -2.64584,2.6458333 h -15.4541 a 2.6458333,2.6458333 45 0 1 -2.64583,-2.6458333 v -6.0978454 a 2.6458333,2.6458333 135 0 1 2.64583,-2.6458334 z" /><path
           style="fill:#7945d4;fill-opacity:1;stroke:none;stroke-width:10.5833;stroke-linecap:round;stroke-linejoin:round;stroke-miterlimit:10;stroke-dasharray:none"
           id="path24"
           width="20.745766"
           height="8.58354"
           x="-5.2991438"
           y="141.05814"
           transform="matrix(0.2490071,-0.14376432,0.14376432,0.2490071,0.37596819,-13.034246)"
           inkscape:path-effect="#path-effect28"
           sodipodi:type="rect"
           d="M -2.6533105,141.05814 H 12.800789 a 2.6458333,2.6458333 45 0 1 2.645833,2.64583 v 3.29187 a 2.6458333,2.6458333 135 0 1 -2.645833,2.64584 H -2.6533105 a 2.6458333,2.6458333 45 0 1 -2.6458333,-2.64584 v -3.29187 a 2.6458333,2.6458333 135 0 1 2.6458333,-2.64583 z" /><path
           id="path25"
           style="baseline-shift:baseline;display:inline;overflow:visible;opacity:1;fill:#8b4de0;fill-opacity:1;stroke:none;stroke-width:3.043;stroke-linecap:round;stroke-linejoin:round;stroke-miterlimit:10;stroke-dasharray:none;enable-background:accumulate;stop-color:#000000;stop-opacity:1"
           d="m 32.520156,15.128618 c -0.347353,-1.09e-4 -0.676022,0.156695 -0.894485,0.426731 l -3.491137,4.317427 c -0.931327,0.03146 -1.840618,0.291561 -2.647628,0.757486 l -5.463604,3.154443 c -0.815365,0.470767 -1.317648,1.340752 -1.317648,2.282262 v 24.23963 c 1e-6,0.840303 0.681202,1.521509 1.521505,1.521509 h 27.717114 c 0.840303,0 1.521496,-0.681194 1.521496,-1.521509 V 21.391004 c 0,-0.840303 0.02268,-2.212604 -0.156158,-3.032017 -0.304865,-1.396727 -1.04068,-2.459493 -2.069043,-2.970943 -0.30634,-0.152365 -0.730108,-0.236401 -1.174558,-0.25645 -0.02781,-0.0024 -0.05585,-0.0024 -0.08415,-0.0024 h -0.25467 z m 0.548718,2.300238 h 11.079702 c -1.338789,1.210253 -2.810688,2.104738 -5.235986,2.361152 -0.835254,0.08829 -5.466998,0.07951 -6.3073,0.07951 h -1.50991 z"
           sodipodi:nodetypes="cccccscsccssscsccccsscc" /><path
           id="rect15"
           style="fill:#ba75ff;fill-opacity:1;stroke:#000000;stroke-width:2.87529;stroke-linecap:round;stroke-linejoin:round;stroke-miterlimit:10;stroke-dasharray:none;stroke-opacity:1"
           d="m 26.944781,27.504317 c -0.565975,0 -1.131949,0.216829 -1.56563,0.650511 -0.867376,0.867363 -0.867376,2.263896 -1.3e-5,3.131271 l 5.57534,5.575339 -5.57534,5.575181 c -0.867363,0.867375 -0.867363,2.263908 0,3.131271 0.867376,0.867377 2.264056,0.867377 3.131431,0 l 5.575193,-5.575179 5.57518,5.575179 c 0.867376,0.867377 2.263909,0.867377 3.131272,0 0.867364,-0.867363 0.867364,-2.263896 0,-3.131271 l -5.575193,-5.575181 5.575193,-5.575339 c 0.867364,-0.867375 0.867364,-2.263908 0,-3.131271 -0.867363,-0.867376 -2.263896,-0.867376 -3.131272,0 l -5.575193,5.575179 -5.57518,-5.575179 c -0.433682,-0.433682 -0.999802,-0.650511 -1.565788,-0.650511 z" /><path
           id="path29"
           style="fill:#ba8ee6;fill-opacity:1;stroke:none;stroke-width:2.87529;stroke-linecap:round;stroke-linejoin:round;stroke-miterlimit:10;stroke-dasharray:none;stroke-opacity:1"
           d="m 26.944781,27.504317 c -0.565975,0 -1.131949,0.216829 -1.56563,0.650511 -0.867376,0.867363 -0.867376,2.263896 -1.3e-5,3.131271 l 5.57534,5.575339 -5.57534,5.575181 c -0.867363,0.867375 -0.867363,2.263908 0,3.131271 0.867376,0.867377 2.264056,0.867377 3.131431,0 l 5.575193,-5.575179 5.57518,5.575179 c 0.867376,0.867377 2.263909,0.867377 3.131272,0 0.867364,-0.867363 0.867364,-2.263896 0,-3.131271 l -5.575193,-5.575181 5.575193,-5.575339 c 0.867364,-0.867375 0.867364,-2.263908 0,-3.131271 -0.867363,-0.867376 -2.263896,-0.867376 -3.131272,0 l -5.575193,5.575179 -5.57518,-5.575179 c -0.433682,-0.433682 -0.999802,-0.650511 -1.565788,-0.650511 z" /></g></g></g></svg>
